<svg xmlns="http://www.w3.org/2000/svg" width="200" height="50.09" fill="none" viewBox="0 0 200 50.09">
<rect width="30" height="42" fill="#6c63ff" rx="5" style="fill:#a179b6;fill-opacity:1;stroke-width:1.0247"/>
<rect width="30" height="42" x="5" y="4" fill="#ffc97b" rx="5" style="stroke-width:1.0247"/>
<rect width="30" height="42" x="10" y="8" fill="#9ae3d4" rx="5" style="stroke-width:1.0247"/>

<path d="M48 20.673q0-2.747 1.227-4.907 1.253-2.187 3.386-3.387 2.16-1.226 4.827-1.226 3.12 0 5.467 1.6t3.28 4.426h-4.294q-.64-1.333-1.813-2-1.147-.666-2.667-.666-1.626 0-2.906.773-1.254.747-1.974 2.133-.693 1.387-.693 3.254 0 1.84.693 3.253.72 1.387 1.974 2.16 1.28.747 2.906.747 1.52 0 2.667-.667 1.173-.693 1.813-2.027h4.294q-.934 2.854-3.28 4.454-2.32 1.573-5.467 1.573-2.667 0-4.827-1.2-2.133-1.227-3.386-3.387Q48 23.42 48 20.673m25.12-10.4v19.733h-3.733V10.273Zm17.413 12.026q0 .8-.106 1.44h-10.8q.133 1.6 1.12 2.507.986.907 2.426.907 2.08 0 2.96-1.787h4.027q-.64 2.133-2.453 3.52-1.814 1.36-4.454 1.36-2.133 0-3.84-.933-1.68-.96-2.64-2.694-.933-1.733-.933-4 0-2.293.933-4.026.934-1.734 2.614-2.667t3.866-.933q2.107 0 3.76.906 1.68.907 2.587 2.587.933 1.653.933 3.813m-3.866-1.066q-.027-1.44-1.04-2.294-1.014-.88-2.48-.88-1.387 0-2.347.854-.933.826-1.147 2.32zm5.626 1.333q0-2.24.88-3.973.907-1.734 2.427-2.667 1.547-.933 3.44-.933 1.653 0 2.88.666 1.253.667 2 1.68v-2.106h3.76v14.773h-3.76v-2.16q-.72 1.04-2 1.733-1.253.667-2.907.667-1.866 0-3.413-.96-1.52-.96-2.427-2.693-.88-1.76-.88-4.027m11.627.053q0-1.36-.533-2.32-.534-.986-1.44-1.493-.907-.533-1.947-.533t-1.92.506-1.44 1.494q-.533.96-.533 2.293t.533 2.347q.56.986 1.44 1.52.907.533 1.92.533 1.04 0 1.947-.507.906-.533 1.44-1.493.533-.987.533-2.347m11.147-5.093q.72-1.173 1.866-1.84 1.174-.667 2.667-.667v3.92h-.987q-1.76 0-2.666.827-.88.827-.88 2.88v7.36h-3.734V15.233h3.734zm13.546-6.133q2.934 0 5.147 1.146 2.24 1.147 3.44 3.28 1.227 2.107 1.227 4.907t-1.227 4.907q-1.2 2.08-3.44 3.226-2.213 1.147-5.147 1.147h-6.506V11.393Zm-.133 15.44q2.933 0 4.533-1.6t1.6-4.507-1.6-4.533q-1.6-1.654-4.533-1.654h-2.64v12.294Zm26.48-4.534q0 .8-.107 1.44h-10.8q.134 1.6 1.12 2.507t2.427.907q2.08 0 2.96-1.787h4.027q-.64 2.133-2.454 3.52-1.813 1.36-4.453 1.36-2.133 0-3.84-.933-1.68-.96-2.64-2.694-.933-1.733-.933-4 0-2.293.933-4.026.933-1.734 2.613-2.667t3.867-.933q2.107 0 3.76.906 1.68.907 2.587 2.587.933 1.653.933 3.813m-3.867-1.066q-.026-1.44-1.04-2.294-1.013-.88-2.48-.88-1.386 0-2.346.854-.934.826-1.147 2.32zm12.24 9.013q-1.813 0-3.253-.64-1.44-.667-2.293-1.787-.827-1.12-.907-2.48h3.76q.107.854.827 1.414.746.56 1.84.56 1.067 0 1.653-.427.613-.427.613-1.093 0-.72-.746-1.067-.72-.373-2.32-.8-1.654-.4-2.72-.827-1.04-.426-1.814-1.306-.746-.88-.746-2.374 0-1.226.693-2.24.72-1.013 2.027-1.6 1.333-.586 3.12-.586 2.64 0 4.213 1.333 1.573 1.307 1.733 3.547h-3.573q-.08-.88-.747-1.387-.64-.533-1.733-.533-1.013 0-1.573.373-.534.373-.534 1.04 0 .747.747 1.147.747.373 2.32.773 1.6.4 2.64.827t1.787 1.333q.773.88.8 2.347 0 1.28-.72 2.293-.694 1.013-2.027 1.6-1.307.56-3.067.56m17.627-.24-5.013-6.293v6.293h-3.733V10.273h3.733v11.226l4.96-6.266h4.853l-6.506 7.413 6.56 7.36z" aria-label="ClearDesk" style="font-weight:600;font-size:26.6667px;line-height:0;font-family:Poppins;-inkscape-font-specification:&quot;Poppins Semi-Bold&quot;;fill:#3a4652;stroke-width:.377953"/>
<path d="M48.747 42.457h2.677v.608H48V35.61h.747zm4.117-6.314q-.224 0-.384-.16t-.16-.395.16-.384q.16-.16.384-.16t.384.16q.16.15.16.384t-.16.395-.384.16m.373 1.098v5.824h-.746v-5.824zm3.99.63h-1.355v5.194h-.747v-5.194h-.81v-.63h.81v-.405q0-.95.48-1.397.491-.448 1.579-.448v.64q-.725 0-1.024.277-.288.277-.288.928v.405h1.355zm6.442 1.984q0 .384-.02.586h-4.833q.032.662.32 1.131.288.47.757.715.47.234 1.024.234.726 0 1.216-.352.502-.352.662-.949h.79q-.214.853-.918 1.397-.694.534-1.75.534-.821 0-1.472-.363-.65-.373-1.024-1.045-.362-.683-.362-1.59 0-.906.362-1.589.363-.683 1.014-1.045.65-.363 1.482-.363t1.451.363q.63.362.96.981.341.608.341 1.355m-.757-.022q.01-.65-.267-1.109-.266-.459-.736-.693-.469-.235-1.024-.235-.832 0-1.418.533-.587.534-.651 1.504zm4.704.31q0-.896.352-1.568.363-.683.992-1.046.64-.373 1.44-.373.832 0 1.43.384.607.384.874.981v-1.28h.747v5.824h-.747v-1.29q-.277.597-.885.992-.598.384-1.43.384-.789 0-1.429-.374-.63-.373-.992-1.056-.352-.682-.352-1.578m5.088.01q0-.704-.288-1.237t-.79-.821q-.49-.288-1.087-.288-.619 0-1.11.277-.49.277-.778.81-.278.523-.278 1.249 0 .714.278 1.258.288.534.778.822.491.277 1.11.277.597 0 1.088-.288.501-.288.79-.821.287-.534.287-1.238m2.112-.01q0-.896.363-1.568.362-.683.992-1.046.64-.373 1.44-.373.768 0 1.386.373.62.374.907.971v-3.328h.747v7.893h-.747v-1.3q-.267.607-.875 1.002-.608.384-1.429.384-.8 0-1.44-.374-.63-.373-.992-1.056-.352-.682-.352-1.578m5.088.01q0-.704-.288-1.237t-.79-.821q-.49-.288-1.087-.288-.619 0-1.11.277-.49.277-.778.81-.278.523-.278 1.249 0 .714.278 1.258.288.534.778.822.491.277 1.11.277.597 0 1.088-.288.501-.288.79-.821.287-.534.287-1.238m9.387-3.018q1.024 0 1.664.65.65.64.65 1.867v3.413h-.736v-3.328q0-.949-.458-1.45-.459-.502-1.248-.502-.822 0-1.312.544t-.49 1.58v3.156h-.737v-3.328q0-.949-.459-1.45-.458-.502-1.258-.502-.822 0-1.312.544t-.49 1.58v3.156h-.748v-5.824h.747v1.003q.277-.544.79-.821.511-.288 1.14-.288.758 0 1.323.362.576.363.832 1.067.235-.693.8-1.056.576-.373 1.302-.373m4.341-.992q-.224 0-.384-.16t-.16-.395.16-.384q.16-.16.384-.16t.384.16q.16.15.16.384t-.16.395-.384.16m.373 1.098v5.824h-.746v-5.824zm4.427-.106q1.045 0 1.707.65.661.64.661 1.867v3.413h-.736v-3.328q0-.949-.48-1.45-.47-.502-1.29-.502-.843 0-1.345.534-.5.533-.5 1.568v3.178H95.7v-5.824h.747v.992q.277-.533.8-.81.523-.288 1.184-.288m4.704 4.693-1.11 2.795h-.511l.79-2.795zm11.019-4.693q1.024 0 1.664.65.65.64.65 1.867v3.413h-.735v-3.328q0-.949-.46-1.45-.458-.502-1.247-.502-.821 0-1.312.544-.49.544-.49 1.58v3.156h-.737v-3.328q0-.949-.458-1.45-.46-.502-1.26-.502-.82 0-1.311.544-.49.544-.49 1.58v3.156h-.747v-5.824h.746v1.003q.278-.544.79-.821.512-.288 1.14-.288.758 0 1.324.362.576.363.832 1.067.234-.693.8-1.056.576-.373 1.3-.373m3.627 3.008q0-.896.352-1.568.362-.683.992-1.046.64-.373 1.44-.373.832 0 1.429.384.608.384.875.981v-1.28h.746v5.824h-.746v-1.29q-.278.597-.886.992-.597.384-1.43.384-.788 0-1.428-.374-.63-.373-.992-1.056-.352-.682-.352-1.578m5.088.01q0-.704-.288-1.237t-.79-.821q-.49-.288-1.088-.288-.618 0-1.11.277-.49.277-.778.81-.277.523-.277 1.249 0 .714.277 1.258.288.534.779.822.49.277 1.11.277.597 0 1.087-.288.502-.288.79-.821.288-.534.288-1.238m2.112-.01q0-.896.362-1.568.363-.683.992-1.046.64-.373 1.44-.373.768 0 1.387.373.619.374.907.971v-3.328h.746v7.893h-.746v-1.3q-.267.607-.875 1.002-.608.384-1.43.384-.8 0-1.44-.374-.629-.373-.991-1.056-.352-.682-.352-1.578m5.088.01q0-.704-.288-1.237t-.79-.821q-.49-.288-1.088-.288-.618 0-1.11.277-.49.277-.778.81-.277.523-.277 1.249 0 .714.277 1.258.288.534.779.822.49.277 1.11.277.597 0 1.087-.288.502-.288.79-.821.288-.534.288-1.238m7.722-.298q0 .384-.021.586h-4.832q.032.662.32 1.131.288.47.757.715.47.234 1.024.234.726 0 1.216-.352.502-.352.662-.949h.789q-.213.853-.917 1.397-.694.534-1.75.534-.821 0-1.472-.363-.65-.373-1.024-1.045-.362-.683-.362-1.59 0-.906.362-1.589.363-.683 1.014-1.045.65-.363 1.482-.363t1.45.363q.63.362.96.981.342.608.342 1.355m-.757-.022q.01-.65-.267-1.109-.266-.459-.736-.693-.47-.235-1.024-.235-.832 0-1.418.533-.587.534-.651 1.504zm7.05 3.318q-1.002 0-1.642-.459-.63-.47-.704-1.27h.768q.053.491.459.8.416.3 1.109.3.608 0 .95-.289.351-.288.351-.714 0-.299-.192-.49-.192-.193-.49-.3-.288-.117-.79-.245-.65-.17-1.056-.341-.405-.17-.693-.502-.277-.34-.277-.906 0-.427.256-.79.256-.362.725-.576.47-.213 1.067-.213.938 0 1.514.48.576.47.619 1.301h-.747q-.032-.512-.405-.82-.363-.32-1.003-.32-.565 0-.917.266t-.352.661q0 .341.203.565.213.214.522.342.31.117.832.266.63.171 1.003.331t.64.47.277.82q0 .47-.256.843-.256.363-.714.576-.46.214-1.056.214m3.809-7.008q-.224 0-.384-.16t-.16-.395.16-.384q.16-.16.384-.16t.384.16q.16.15.16.384t-.16.395-.384.16m.373 1.098v5.824h-.747v-5.824zm8.63-.106q1.023 0 1.663.65.651.64.651 1.867v3.413h-.736v-3.328q0-.949-.459-1.45-.458-.502-1.248-.502-.821 0-1.312.544-.49.544-.49 1.58v3.156h-.736v-3.328q0-.949-.459-1.45-.459-.502-1.259-.502-.821 0-1.312.544-.49.544-.49 1.58v3.156h-.747v-5.824h.747v1.003q.277-.544.789-.821.512-.288 1.141-.288.758 0 1.323.362.576.363.832 1.067.235-.693.8-1.056.576-.373 1.301-.373m4.703 1.386q.278-.586.875-.97.608-.395 1.44-.395.79 0 1.419.373.64.363.992 1.046.362.672.362 1.568t-.362 1.578q-.352.683-.992 1.056-.63.374-1.419.374-.821 0-1.43-.384-.607-.395-.885-.982v4.032h-.736v-8.576h.736zm4.331 1.622q0-.726-.288-1.248-.277-.534-.768-.81-.49-.278-1.11-.278-.597 0-1.098.288-.49.288-.779.821-.288.533-.288 1.237t.288 1.238.779.821q.501.288 1.099.288.618 0 1.109-.277.49-.288.768-.822.288-.544.288-1.258m2.88-4.97v7.892h-.747v-7.893zm6.965 4.682q0 .384-.021.586h-4.832q.032.662.32 1.131.288.47.757.715.47.234 1.024.234.726 0 1.216-.352.502-.352.662-.949h.789q-.213.853-.917 1.397-.694.534-1.75.534-.821 0-1.472-.363-.65-.373-1.024-1.045-.362-.683-.362-1.59 0-.906.362-1.589.363-.683 1.014-1.045.65-.363 1.482-.363t1.451.363q.63.362.96.981.341.608.341 1.355m-.757-.022q.01-.65-.267-1.109-.266-.459-.736-.693-.469-.235-1.024-.235-.832 0-1.418.533-.587.534-.651 1.504z" aria-label="Life admin, made simple" style="font-weight:300;font-size:10.6667px;line-height:0;font-family:Poppins;-inkscape-font-specification:&quot;Poppins Light&quot;;fill:#3a4652;stroke-width:.377953"/>
</svg>